<svg width="500" height="500" viewBox="0 0 500 500" fill="none" xmlns="http://www.w3.org/2000/svg">
<rect width="500" height="500" fill="#F5F5F5"/>
<mask id="mask0_0_1" style="mask-type:luminance" maskUnits="userSpaceOnUse" x="0" y="0" width="499" height="500">
<path d="M0 0H499V500H0V0Z" fill="white"/>
</mask>
<g mask="url(#mask0_0_1)">
<path d="M285.052 429.568C288.25 467.427 311.849 486.354 355.859 486.354V500H143.448V486.354C187.453 486.354 211.057 467.427 214.25 429.568C149.349 429.568 97.3542 412.109 58.2656 377.203C19.4219 342.292 0 299.885 0 249.979C0 196.63 19.7917 154.099 59.3698 122.385C98.9531 90.4271 150.578 73.0938 214.25 70.3906C211.302 32.5312 187.698 13.599 143.448 13.599V-0.046875H355.859V13.599C311.849 13.599 288.25 32.5312 285.052 70.3906C355.365 72.6042 408.589 91.1615 444.729 126.073C481.115 160.74 499.307 202.036 499.307 249.979C499.307 299.885 479.885 342.292 441.042 377.203C402.198 412.109 350.203 429.568 285.052 429.568ZM214.25 90.6719C172.214 93.1302 139.271 106.281 115.422 130.13C91.5729 153.729 79.651 195.771 79.651 256.245C79.651 353.109 124.521 404.12 214.25 409.286V90.6719ZM285.052 90.6719V409.286C325.62 407.562 358.193 395.026 382.776 371.672C407.604 348.312 420.021 305.781 420.021 244.078C420.021 146.969 375.031 95.8333 285.052 90.6719Z" fill="#3B82F6"/>
</g>
</svg>
