<svg xmlns="http://www.w3.org/2000/svg" xmlns:xlink="http://www.w3.org/1999/xlink" width="500" zoomAndPan="magnify" viewBox="0 0 375 374.999991" height="500" preserveAspectRatio="xMidYMid meet" version="1.2"><defs><clipPath id="b2862eee3d"><path d="M 0 0 L 374.25 0 L 374.25 375 L 0 375 Z M 0 0 "/></clipPath></defs><g id="6f72d59945"><g clip-rule="nonzero" clip-path="url(#b2862eee3d)"><path style=" stroke:none;fill-rule:nonzero;fill:#cfa330;fill-opacity:1;" d="M 213.789062 322.175781 C 216.1875 350.570312 233.886719 364.765625 266.894531 364.765625 L 266.894531 375 L 107.585938 375 L 107.585938 364.765625 C 140.589844 364.765625 158.292969 350.570312 160.6875 322.175781 C 112.011719 322.175781 73.015625 309.082031 43.699219 282.902344 C 14.566406 256.71875 0 224.914062 0 187.484375 C 0 147.472656 14.84375 115.574219 44.527344 91.789062 C 74.214844 67.820312 112.933594 54.820312 160.6875 52.792969 C 158.476562 24.398438 140.773438 10.199219 107.585938 10.199219 L 107.585938 -0.0351562 L 266.894531 -0.0351562 L 266.894531 10.199219 C 233.886719 10.199219 216.1875 24.398438 213.789062 52.792969 C 266.523438 54.453125 306.441406 68.371094 333.546875 94.554688 C 360.835938 120.554688 374.480469 151.527344 374.480469 187.484375 C 374.480469 224.914062 359.914062 256.71875 330.78125 282.902344 C 301.648438 309.082031 262.652344 322.175781 213.789062 322.175781 Z M 160.6875 68.003906 C 129.160156 69.847656 104.453125 79.710938 86.566406 97.597656 C 68.679688 115.296875 59.738281 146.828125 59.738281 192.183594 C 59.738281 264.832031 93.390625 303.089844 160.6875 306.964844 Z M 213.789062 68.003906 L 213.789062 306.964844 C 244.214844 305.671875 268.644531 296.269531 287.082031 278.753906 C 305.703125 261.234375 315.015625 229.335938 315.015625 183.058594 C 315.015625 110.226562 281.273438 71.875 213.789062 68.003906 Z M 213.789062 68.003906 "/></g></g></svg>